# xmcd
#
# Track frame offsets:
#	187
#	16167
#	32685
#	47385
#	62205
#	81040
#	97362
#	114985
#	132870
#	149650
#	165010
#	181092
#	196760
#	212200
#	230015
#	250562
#	270082
#	285720
#
# Disc length: 4022 seconds
#
# Revision: 1
# Processed by: cddbd v1.5.1PL0 Copyright (c) Steve Scherf et al.
# Submitted via: CDex 1.50Beta5
#
DISCID=ec0fb412
DTITLE=フランク永井 - 決定版 フランク永井全曲集
DYEAR=1991
DGENRE=Pop
TTITLE0=フランク永井/おまえに
TTITLE1=フランク永井/君恋し
TTITLE2=フランク永井/夜霧の第二国道
TTITLE3=フランク永井/羽田発7時50分
TTITLE4=フランク永井/俺は淋しいんだ
TTITLE5=フランク永井/こいさんのラブ・コール
TTITLE6=フランク永井/公園の手品師
TTITLE7=フランク永井/東京ナイト・クラブ
TTITLE8=フランク永井/ラブ・レター
TTITLE9=フランク永井/大阪ぐらし
TTITLE10=フランク永井/有楽町で逢いましょう
TTITLE11=フランク永井/西銀座駅前
TTITLE12=フランク永井/東京午前三時
TTITLE13=フランク永井/夜霧に消えたチャコ
TTITLE14=フランク永井/霧子のタンゴ
TTITLE15=フランク永井/初恋の詩
TTITLE16=ビクター(OR)/有楽町で逢いましょう
TTITLE17=ビクター(OR)/おまえに
EXTD=
EXTT0=
EXTT1=
EXTT2=
EXTT3=
EXTT4=
EXTT5=
EXTT6=
EXTT7=
EXTT8=
EXTT9=
EXTT10=
EXTT11=
EXTT12=
EXTT13=
EXTT14=
EXTT15=
EXTT16=
EXTT17=
PLAYORDER=
